Normalized EMG Linear Envelopes
nRows=147
nColumns=4

endheader
time	 med_gas_r	  soleus_r	 tib_ant_r	
2.43734	  0.078770	  0.084313	  0.044786	
2.49984	  0.080649	  0.083620	  0.044598	
2.56234	  0.080563	  0.083814	  0.044082	
2.62483	  0.078260	  0.084690	  0.043232	
2.68733	  0.075460	  0.085484	  0.042533	
2.74982	  0.074098	  0.085672	  0.042594	
2.81232	  0.074507	  0.085300	  0.043722	
2.87482	  0.075872	  0.085114	  0.045829	
2.93731	  0.077716	  0.085590	  0.048197	
2.99981	  0.079811	  0.085753	  0.049495	
3.0623	  0.081441	  0.083979	  0.048730	
3.1248	  0.081908	  0.079872	  0.046205	
3.1873	  0.081222	  0.075012	  0.043355	
3.24979	  0.079801	  0.072036	  0.041484	
3.31229	  0.077974	  0.072748	  0.040790	
3.37478	  0.075962	  0.076800	  0.041073	
3.43728	  0.074039	  0.082076	  0.042566	
3.49978	  0.072619	  0.086487	  0.045146	
3.56227	  0.072058	  0.089616	  0.047913	
3.62477	  0.072318	  0.092289	  0.050208	
3.68726	  0.073180	  0.094793	  0.051960	
3.74976	  0.074870	  0.096465	  0.053117	
3.81226	  0.077629	  0.096704	  0.053662	
3.87475	  0.080476	  0.095786	  0.054070	
3.93725	  0.081611	  0.095136	  0.056158	
3.99974	  0.080464	  0.096481	  0.063915	
4.06224	  0.078557	  0.100186	  0.081269	
4.12474	  0.079005	  0.105137	  0.107185	
4.18723	  0.086758	  0.110142	  0.135154	
4.24973	  0.107517	  0.114420	  0.159225	
4.31222	  0.141519	  0.117147	  0.179365	
4.37472	  0.178287	  0.117479	  0.201930	
4.43722	  0.204047	  0.115818	  0.236343	
4.49971	  0.216073	  0.115303	  0.288167	
4.56221	  0.224053	  0.120097	  0.353172	
4.6247	  0.237819	  0.130772	  0.420921	
4.6872	  0.259820	  0.143067	  0.485604	
4.7497	  0.287947	  0.151792	  0.550265	
4.81219	  0.320322	  0.154648	  0.616709	
4.87469	  0.356105	  0.152859	  0.672694	
4.93718	  0.391517	  0.149848	  0.696391	
4.99968	  0.420103	  0.149239	  0.677747	
5.06218	  0.441118	  0.153588	  0.632610	
5.12467	  0.457943	  0.164123	  0.593089	
5.18717	  0.468034	  0.179240	  0.583588	
5.24966	  0.467773	  0.193461	  0.603339	
5.31216	  0.460635	  0.201583	  0.629680	
5.37466	  0.454047	  0.204064	  0.642328	
5.43715	  0.457771	  0.205245	  0.643859	
5.49965	  0.476507	  0.206784	  0.647775	
5.56214	  0.496765	  0.207041	  0.653351	
5.62464	  0.499882	  0.206791	  0.648133	
5.68714	  0.488525	  0.210370	  0.629534	
5.74963	  0.480395	  0.220897	  0.609984	
5.81213	  0.483277	  0.237560	  0.602319	
5.87462	  0.493406	  0.257342	  0.606974	
5.93712	  0.506280	  0.279060	  0.614278	
5.99962	  0.518448	  0.303044	  0.614124	
6.06211	  0.529179	  0.324248	  0.599928	
6.12461	  0.540993	  0.334486	  0.571666	
6.1871	  0.553648	  0.335900	  0.540783	
6.2496	  0.564283	  0.340591	  0.524921	
6.3121	  0.575689	  0.354807	  0.535999	
6.37459	  0.598000	  0.372892	  0.571728	
6.43709	  0.637678	  0.384713	  0.613673	
6.49958	  0.686423	  0.383656	  0.643345	
6.56208	  0.727097	  0.369436	  0.661617	
6.62458	  0.751438	  0.346013	  0.678071	
6.68707	  0.763022	  0.320644	  0.691584	
6.74957	  0.761070	  0.304271	  0.693921	
6.81206	  0.738822	  0.307411	  0.678484	
6.87456	  0.705039	  0.336454	  0.645873	
6.93706	  0.685155	  0.391180	  0.611236	
6.99955	  0.692844	  0.458762	  0.595083	
7.06205	  0.716436	  0.514449	  0.603349	
7.12454	  0.732064	  0.536897	  0.626670	
7.18704	  0.720914	  0.526598	  0.650378	
7.24954	  0.680608	  0.505905	  0.654685	
7.31203	  0.628323	  0.497546	  0.623442	
7.37453	  0.593626	  0.509231	  0.567420	
7.43702	  0.602086	  0.535221	  0.523704	
7.49952	  0.657878	  0.562351	  0.524314	
7.56202	  0.738377	  0.581787	  0.572030	
7.62451	  0.804550	  0.596283	  0.638382	
7.68701	  0.824756	  0.609978	  0.682904	
7.7495	  0.797070	  0.624482	  0.688186	
7.812	  0.746132	  0.649317	  0.670475	
7.8745	  0.701956	  0.695062	  0.649385	
7.93699	  0.683013	  0.748691	  0.626711	
7.99949	  0.685710	  0.776416	  0.599364	
8.06198	  0.688924	  0.760838	  0.572075	
8.12448	  0.679655	  0.717822	  0.550381	
8.18698	  0.668466	  0.675317	  0.532005	
8.24947	  0.669065	  0.653321	  0.512761	
8.31197	  0.673616	  0.658666	  0.495629	
8.37446	  0.662569	  0.684307	  0.487671	
8.43696	  0.631021	  0.717184	  0.493464	
8.49946	  0.594175	  0.750140	  0.513876	
8.56195	  0.567935	  0.779998	  0.543368	
8.62445	  0.551796	  0.797527	  0.567224	
8.68694	  0.537713	  0.790512	  0.570230	
8.74944	  0.524807	  0.757325	  0.552822	
8.81194	  0.512024	  0.714895	  0.531763	
8.87443	  0.490605	  0.690934	  0.520961	
8.93693	  0.455473	  0.700022	  0.521093	
8.99942	  0.413915	  0.727333	  0.528000	
9.06192	  0.381314	  0.744800	  0.537400	
9.12442	  0.372130	  0.741285	  0.542839	
9.18691	  0.387829	  0.727445	  0.538534	
9.24941	  0.413692	  0.716265	  0.521424	
9.3119	  0.434487	  0.707964	  0.490412	
9.3744	  0.445452	  0.687498	  0.448767	
9.4369	  0.442780	  0.634757	  0.402898	
9.49939	  0.419013	  0.544738	  0.356722	
9.56189	  0.375164	  0.437506	  0.312779	
9.62438	  0.324638	  0.344790	  0.275871	
9.68688	  0.280182	  0.283992	  0.250167	
9.74938	  0.245884	  0.246484	  0.234632	
9.81187	  0.221948	  0.215613	  0.222603	
9.87437	  0.207117	  0.186737	  0.207760	
9.93686	  0.197156	  0.162099	  0.191750	
9.99936	  0.188307	  0.142088	  0.180517	
10.0619	  0.181296	  0.128543	  0.173333	
10.1244	  0.179683	  0.122582	  0.164619	
10.1868	  0.184419	  0.119345	  0.155129	
10.2493	  0.190732	  0.114229	  0.150728	
10.3118	  0.194029	  0.108849	  0.152353	
10.3743	  0.196622	  0.105949	  0.156132	
10.4368	  0.202116	  0.104441	  0.160432	
10.4993	  0.207822	  0.101748	  0.165809	
10.5618	  0.208903	  0.097546	  0.169464	
10.6243	  0.203609	  0.093880	  0.166331	
10.6868	  0.191470	  0.092423	  0.157073	
10.7493	  0.174033	  0.093112	  0.148844	
10.8118	  0.156555	  0.095535	  0.146956	
10.8743	  0.143113	  0.099320	  0.151557	
10.9368	  0.134552	  0.103075	  0.161232	
10.9993	  0.131545	  0.104797	  0.173614	
11.0618	  0.133366	  0.102925	  0.183534	
11.1243	  0.137388	  0.097323	  0.185955	
11.1868	  0.142289	  0.090384	  0.180570	
11.2493	  0.146895	  0.085669	  0.170484	
11.3118	  0.148758	  0.085185	  0.158612	
11.3743	  0.147589	  0.089260	  0.148240	
11.4368	  0.145909	  0.097065	  0.143900	
11.4993	  0.145588	  0.106197	  0.148175	
11.5618	  0.146489	  0.114647	  0.158613	
